<?xml version="1.0" encoding="UTF-8" standalone="no"?>
<!DOCTYPE svg PUBLIC "-//W3C//DTD SVG 1.1//EN" "http://www.w3.org/Graphics/SVG/1.1/DTD/svg11.dtd">
<!-- Created with Vectornator (http://vectornator.io/) -->
<svg height="100%" stroke-miterlimit="10" style="fill-rule:nonzero;clip-rule:evenodd;stroke-linecap:round;stroke-linejoin:round;" version="1.1" viewBox="0 0 512 512" width="100%" xml:space="preserve" xmlns="http://www.w3.org/2000/svg" xmlns:vectornator="http://vectornator.io" xmlns:xlink="http://www.w3.org/1999/xlink">
<defs/>
<g id="Untitled" vectornator:layerName="Untitled">
<path d="M207.484 232.746C216.156 229.073 186.033 249.202 185.415 249.568C172.548 257.192 151.342 274.248 167.454 290.293C180.166 302.953 225.968 286.047 224.686 269.815C223.653 256.738 192.513 274.496 188.992 277.246C188.826 277.376 180.353 285.801 181.843 286.204C187.928 287.851 211.464 261.419 204.706 254.095C198.928 247.833 189.549 254.596 184.418 258.26C183.995 258.562 176.589 264.003 176.846 262.176C178.119 253.135 192.372 242.804 198.261 235.524C198.521 235.203 200.804 232.574 200.538 232.221C198.938 230.097 189.046 242.068 188.191 242.712C187.227 243.439 189.392 240.617 189.992 239.569C191.366 237.172 192.659 234.771 194.164 232.456C194.558 231.85 196.615 229.43 196.062 230.233C191.704 236.555 185.871 241.425 180.366 246.819C178.458 248.69 176.2 250.37 174.384 252.318C174.229 252.485 173.15 253.956 173.246 253.97C174.221 254.107 178.791 248.077 179.384 247.361C180.301 246.253 182.819 242.749 181.914 243.867C175.669 251.586 169.407 260.334 164.143 268.767C163.789 269.334 161.909 271.852 162.755 272.195C165.235 273.199 176.001 257.762 174.644 255.299C173.872 253.898 171.663 256.655 171.476 256.891C167.333 262.103 163.053 268.194 159.999 274.072C159.506 275.021 157.836 276.937 158.896 277.087C160.424 277.302 163.022 270.162 163.636 269.148C164.104 268.376 165.429 266.025 165.09 266.862C160.589 277.976 153.442 288.369 148.095 299.118C147.483 300.349 149.498 296.754 150.181 295.562C151.368 293.49 152.419 291.342 153.561 289.244C155.599 285.502 158.495 273.22 161.832 270.706C161.951 270.616 161.825 271.012 161.769 271.15C160.419 274.483 158.452 277.716 156.779 280.865C155.515 283.241 144.21 305.156 145.669 306.703C146.604 307.694 148.186 304.863 148.487 304.382C150.594 301.006 163.098 276.386 163.302 276.348C165.395 275.963 161.49 280.201 160.46 282.062C158.833 285.002 156.999 287.837 155.594 290.889C153.806 294.775 141.361 321.604 142.121 323.867C142.324 324.472 142.773 322.766 143.037 322.184C144.951 317.966 144.674 318.849 147.68 313.327C151.477 306.353 155.042 299.323 158.578 292.215C158.963 291.44 162.754 284.52 163.322 285.862C165.196 290.287 159.723 294.783 157.609 299.098C154.26 305.936 139.04 334.061 139.745 340.743C139.969 342.859 141.64 336.934 142.588 335.029C144.683 330.817 146.704 326.568 148.682 322.299C152.597 313.853 154.772 304.643 158.904 296.337C159.413 295.313 158.22 298.523 157.769 299.574C156.365 302.838 155 306.12 153.666 309.413C152.494 312.309 142.053 343.746 144.765 345.3C147.009 346.585 149.039 339.569 151.939 332.948C155.988 323.704 160.061 314.503 163.996 305.206C165.029 302.766 165.726 300.114 167.279 297.968C167.718 297.363 168.501 295.725 168.862 296.38C168.993 296.618 153.731 322.464 152.242 325.971C149.664 332.041 147.503 336.844 144.474 342.541C144.278 342.911 141.562 347.047 141.375 346.861C139.568 345.061 144.116 336.068 144.774 333.978C146.03 329.987 156.456 289.375 150.082 309.135C149.245 311.732 148.457 314.344 147.624 316.942C146.976 318.967 146.314 320.987 145.639 323.003C143.961 328.017 143.455 329.441 141.54 334.429C140.053 338.3 138.016 344.64 134.908 347.762C134.167 348.505 134.977 345.661 135.123 344.622C136.085 337.787 135.198 342.825 137.133 335.167C137.192 334.934 144.014 303.979 146.685 307.525C152.485 315.225 141.56 336.142 138.069 342.998C136.357 346.362 136.668 345.389 134.404 349.729C133.814 350.862 132.683 354.367 132.572 353.095C131.633 342.323 134.919 328.771 139.606 319.21C141.177 316.005 142.19 312.383 144.565 309.718C145.445 308.73 147.13 306.335 147.827 307.459C150.045 311.037 139.901 338.262 138.895 343.568C138.183 347.321 137.317 351.435 137.016 355.305C136.94 356.286 136.36 358.951 137.054 358.255C143.85 351.43 139.038 333.102 144.31 324.402C144.629 323.874 144.509 325.624 144.504 326.24C144.489 328.26 143.848 330.227 143.438 332.205C142.8 335.287 142.119 338.36 141.459 341.438C139.787 349.241 139.386 364.177 133.909 370.947C132.445 372.756 133.887 366.274 134.212 363.969C134.994 358.412 135.839 351.641 138.457 346.676C139.067 345.52 140.138 342.582 140.925 343.627C145.427 349.605 138.189 362.407 135.901 368.057C135.746 368.439 131.156 377.834 130.56 377.042C127.318 372.739 132.896 357.16 136.888 354.608C137.512 354.209 133.52 366.523 133.33 367.015C130.67 373.916 127.612 380.667 125 387.583C124.7 388.379 122.862 393.663 122.036 395.771C121.656 396.74 120.851 399.489 120.519 398.502C118.403 392.197 125.603 371.059 131.557 368.351C132.071 368.117 130.439 374.543 130.144 375.172C127.801 380.171 125.086 385.021 122.627 389.966C121.575 392.081 120.643 394.266 119.468 396.315C119.302 396.606 118.9 397.475 118.899 397.141C118.885 390.129 121.915 383.167 125.328 377.212C125.415 377.059 125.942 375.3 126.466 375.56C128.085 376.366 125.637 379.086 125.05 380.796C122.68 387.691 119.487 394.281 117.195 401.204C116.481 403.362 115.811 405.535 115.147 407.71C114.795 408.862 114.035 412.393 114.203 411.2C114.724 407.498 115.706 397.646 117.955 400.632C118.163 400.908 116.842 403.97 116.789 404.091C113.332 411.87 110.763 420.722 112.337 429.28C115.108 444.34 141.303 460.759 155.41 462.744C162.326 463.718 162.589 467.965 167.258 471.885C169.122 473.45 175.641 476.161 174.176 474.218C172.199 471.593 166.198 470.335 163.351 469.071C162.543 468.711 158.514 464.072 157.793 465.118C156.958 466.33 170.726 470.609 171.665 471.147C185.252 478.932 202.429 481.602 217.585 485.989C232.603 490.336 249.455 487.635 264.46 487.604C292.345 487.547 317.762 486.208 344.678 479.193C353.365 476.929 361.287 477.656 369.592 472.736C384.453 463.93 403.028 449.958 413.408 436.555C414.409 435.263 422.537 422.32 422.067 421.695C421.238 420.595 421.161 424.301 420.616 425.568C419.51 428.14 418.591 430.845 417.048 433.218C413.438 438.771 406.752 447.127 401.387 451.168C400.105 452.134 403.164 448.486 404.202 447.262C404.939 446.391 405.66 445.506 406.384 444.625C409.621 440.69 413.456 437.261 416.795 433.409C420.953 428.612 419.86 424.65 421.523 419.128C424.488 409.281 430.164 400.222 433.07 390.181C434.46 385.379 435.132 380.359 435.83 375.397C435.934 374.656 436.623 367.515 436.005 367.722C433.316 368.624 429.183 382.127 428.491 384.102C423.051 399.616 409.544 422.18 407.416 437.297C407.155 439.153 408.205 433.631 408.641 431.808C408.851 430.933 409.01 430.045 409.238 429.175C410.666 423.742 411.396 418.371 412.44 412.867C415.28 397.888 420.078 381.112 426.14 367.013C434.785 346.908 418.005 345.296 413.126 330.76C405.912 309.264 400.797 286.639 395.453 264.864C393.853 258.345 387.572 249.297 387.416 243.125C387.376 241.556 389.107 239.045 387.975 237.543C387.475 236.879 384.934 232.613 384.128 232.698C380.979 233.031 375.696 236.697 372.119 237.575C366.747 238.894 359.101 237.986 353.503 237.899C316.295 237.323 279.309 234.359 242.115 232.865C233.162 232.505 209.432 224.274 202.408 231.805C198.946 235.518 193.535 251.13 199.314 253.789C204.456 256.155 212.826 247.34 216.23 244.621C217.89 243.294 221.861 238.395 220.915 240.298C218.405 245.342 212.811 249.516 209.654 254.338C209.516 254.549 208.826 255.94 209.181 256.084C212.142 257.283 218.659 250.858 221.187 249.621C229.752 245.432 246.517 237.909 255.84 244.761C260.744 248.364 244.698 262.252 241.449 263.343C241.291 263.396 241.616 263.048 241.734 262.93C244.434 260.218 249.337 258.828 252.886 257.706C258.573 255.908 273.833 255.427 278.372 252.008C279.561 251.112 275.405 252.368 273.965 252.747C271.602 253.369 269.241 254.005 266.897 254.696C255.27 258.125 243.014 262.852 230.793 263.428C229.832 263.474 220.028 261.974 222.317 259.291C229.421 250.969 248.942 249.896 258.702 248.56C288.366 244.502 320.791 245.278 350.605 247.229C363.18 248.052 375.969 248.534 388.446 250.29C389.389 250.423 392.457 250.337 392.54 251.772C392.649 253.675 388.95 253.088 387.088 253.496C382.096 254.591 376.698 255.439 371.585 255.843C350.965 257.472 330.142 259.919 309.501 260.919C307.158 261.032 292.315 262.034 291.07 258.325C291.056 258.283 301.221 257.728 302.486 257.667C308.848 257.359 315.243 257.158 321.607 256.961C344.599 256.251 367.802 256.164 390.714 258.309C393.341 258.555 409.377 261.289 411.772 258.329C411.965 258.09 392.919 255.426 392.484 255.388C380.157 254.31 367.81 253.426 355.438 253.118C326.284 252.39 297.132 253.864 267.973 253.489C264.229 253.44 246.576 251.84 244.16 255.345C243.807 255.858 255.786 257.668 256.057 257.699C264.922 258.737 273.91 258.902 282.826 258.976C296.949 259.092 327.283 262.095 339.938 257.05C342.021 256.22 335.517 256.21 333.276 256.113C328.747 255.916 324.154 256.157 319.64 256.458C307.471 257.268 295.464 259.139 283.433 261.1C266.183 263.91 248.146 270.181 230.65 270.881C229.163 270.941 232.412 264.336 226.137 265.943C219.383 267.673 208.155 276.547 201.674 275.635C201.554 275.618 197.898 264.029 196.318 262.199C192.319 257.567 179.065 250.644 178.205 244.477C177.786 241.471 189.834 232.471 181.056 227.441C162.896 217.035 137.661 247.819 125.238 257.177C123.126 258.768 115.071 271.824 112.138 271.411C111.19 271.278 113.498 270.061 114.227 269.441C115.813 268.093 117.125 266.755 118.659 265.309C123.906 260.359 129.912 255.57 134.611 250.117C136.171 248.306 137.978 246.659 139.643 244.937C140.507 244.043 143.311 242.283 142.079 242.11C137.925 241.525 126.493 254.191 123.968 256.545C109.494 270.041 95.5331 291.789 88.973 310.498C87.3927 315.006 90.8566 336.522 94.2644 338.871C97.1401 340.853 100.961 341.742 103.472 344.243C106.122 346.882 108.62 352.894 112.815 353.484C112.959 353.505 110.571 340.197 110.374 338.648C109.006 327.878 108.347 317.401 108.786 306.493C108.97 301.9 111.404 297.572 114.564 294.399C116.13 292.827 118.842 287.129 118.899 289.347C119.08 296.518 112.941 307.379 110.481 313.752C109.44 316.45 108.35 319.176 107.517 321.94C107.36 322.461 107.381 323.964 107.743 323.557C115.762 314.558 120.581 289.037 127.658 276.993C129.184 274.395 130.762 271.827 132.367 269.276C134.422 266.012 134.952 265.85 138.093 262.383C146.267 253.359 134.393 275.493 132.161 277.174C130.239 278.622 134.716 273.084 136.177 271.171C138.348 268.328 141.316 264.813 143.547 262.245C148.286 256.79 155.128 253.268 159.819 248.004C161.298 246.344 162.346 244.105 163.803 242.223C164.478 241.351 166.128 238.514 165.763 239.555C163.286 246.622 155.114 252.833 151.025 258.995C143.892 269.742 125.11 311.054 126.33 325.041C126.482 326.786 129.042 327.282 129.889 328.713C131.215 330.95 131.204 333.115 131.648 335.527C133.195 343.937 139.18 317.089 123.203 331.168C114.314 339.002 140.805 348.606 142.836 347.746C148.478 345.356 151.806 335.908 156.186 331.734C165.22 323.125 182 315.234 192.832 309.491C222.098 293.976 256.188 288.045 288.655 286.745C298.364 286.356 307.757 289.567 317.332 290.555C333.759 292.25 354.579 290.111 370.059 284.389C377.34 281.697 388.428 276.072 391.812 268.201C396.742 256.738 381.618 230.212 398.933 230.48C439.923 231.114 464.766 269.109 483.749 298.805C486.481 303.078 487.427 320.781 484.756 325.443C482.902 328.678 482.829 332.657 481.066 335.567C480.822 335.97 476.894 340.867 477.367 340.934C477.966 341.018 485.034 336.351 486.236 335.842C487.404 335.347 490.532 333.729 489.276 333.552C486.418 333.15 478.295 345.162 476.016 347.311C473.361 349.816 466.991 353.514 466.991 353.514C466.991 353.514 471.315 350.628 473.802 350.17C475.054 349.94 471.706 351.629 470.572 352.206C468.59 353.215 466.711 353.906 464.583 354.534C463.781 354.77 461.538 355.834 462.206 355.331C464.716 353.44 471.207 352.522 471.207 352.522C471.207 352.522 468.153 353.314 466.706 353.927C461.59 356.093 452.776 360.247 447.241 357.075C444.611 355.568 459.225 349.391 459.434 349.28C466.671 345.43 472.519 340.417 479.037 335.508C480.442 334.449 482.194 333.387 483.756 332.548C484.468 332.166 486.666 331.857 485.942 331.497C478.512 327.802 456.609 354.504 447.203 354.126C445.249 354.047 453.506 345.478 453.908 345.105C460.66 338.832 468.081 333.722 474.357 326.923C474.602 326.657 475.988 325.925 475.686 325.525C474.961 324.562 473.355 326.235 472.327 326.864C461.961 333.206 453.555 340.908 444.338 348.74C443.528 349.428 442.488 350.998 441.614 350.395C440.485 349.617 447.298 343.657 447.846 343.12C450.514 340.505 473.955 318.36 469.924 314.976C468.03 313.386 450.393 330.24 448.458 332.336C446.755 334.182 444.684 339.713 443.173 337.706C441.966 336.104 445.485 334.427 446.588 332.752C451.97 324.577 457.271 312.794 465.182 306.835C465.316 306.735 464.981 307.103 464.897 307.248C462.947 310.652 457.813 313.529 454.831 316.022C450.143 319.942 438.886 333.706 432.095 332.75C430.261 332.492 432.192 328.175 432.338 327.802C433.349 325.224 443.963 307.496 436.327 309.115C430.088 310.438 424.046 320.492 425.486 326.612C425.733 327.661 431.801 338.363 427.667 338.468C423.099 338.584 420.703 315.354 420.634 311.209C420.516 304.216 409.267 288.654 406.995 279.397C405.208 272.116 406.35 265.23 405.713 257.929C405.658 257.298 404.336 247.74 405.059 248.1C421.047 256.052 447.83 274.982 457.155 289.854C460.499 295.187 467.441 301.59 469.401 307.429C470.22 309.868 469.829 311.716 470.271 314.119C470.501 315.371 472.13 318.61 472.308 317.35C472.724 314.393 467.89 308.885 467.115 305.975C465.494 299.894 464.51 278.888 452.895 284.725C446.248 288.066 440.301 295.463 436.058 301.378C436.039 301.404 433.759 305.357 434.576 305.472C441.809 306.49 448.631 295.212 456.533 295.881C461.398 296.292 446.797 313.579 437.785 308.414C431.664 304.907 446.286 291.268 450.753 291.897C453.348 292.262 450.303 297.222 449.215 299.606C446.968 304.534 442.128 316.269 435.678 316.95C434.458 317.078 437.42 315.224 438.305 314.375C439.879 312.863 441.44 311.337 443.02 309.831C447.052 305.989 451.017 298.982 448.758 293.201C448.619 292.845 430.39 273.684 428.768 272.724C426.452 271.352 424.144 269.671 422.985 267.154C422.327 265.727 420.634 261.398 421.58 262.654C425.563 267.941 417.166 312.003 431.445 310.013C441.801 308.57 419.929 281.327 418.316 279.405C417.433 278.352 416.352 274.838 415.836 276.112C413.089 282.894 425.485 297.449 428.893 302.407C430.572 304.851 436.921 311.337 436.434 314.792C436.138 316.9 425.017 324.932 432.745 324.916C445.771 324.889 457.556 327.502 470.176 329.278C472.384 329.589 481.469 328.721 482.896 330.616C483.338 331.203 472.59 341.356 470.611 340.663C469.624 340.316 470.72 338.547 471.049 337.554C472.911 331.928 478.343 327.831 483.933 326.459C484.604 326.294 485.392 326.424 486.026 326.074C486.294 325.926 489.394 324.668 489.385 324.735C489.283 325.454 470.21 334.837 468.666 335.18C456.14 337.967 418.984 349.714 413.095 361.554C408.807 370.173 423.994 356.838 425.26 355.566C427.057 353.762 430.148 348.067 430.958 350.48C431.965 353.479 421.698 363.225 420.332 364.837C412.257 374.364 398.453 392.338 397.201 405.288C396.581 411.707 408.643 399.605 409.207 398.825C410.013 397.712 412.207 394.243 411.293 395.269C405.715 401.529 402.801 411.122 400.052 418.823C399.235 421.112 398.453 423.412 397.719 425.742C397.357 426.891 395.812 429.957 396.775 429.232C397.901 428.384 403.437 418.93 402.245 420.944C392.618 437.2 371.385 451.72 354.118 458.782C351.593 459.815 327.827 464.826 327.619 465.243C326.921 466.647 329.219 466.89 330.096 466.95C339.07 467.566 348.928 466.659 357.49 463.786C359.768 463.021 362.199 462.362 364.399 461.361C365.079 461.052 367.103 460.383 366.363 460.279C358.436 459.163 348.399 464.1 340.558 465.026C329.462 466.336 318.326 464.838 307.325 466.236C305.67 466.447 290.149 468.798 290.27 469.95C290.646 473.505 306.233 470.547 305.936 469.664C304.915 466.622 291.809 471.176 290.527 471.345C277.969 473.001 258.356 473.639 246 470.739C242.741 469.974 227.163 466.268 224.62 468.183C224.044 468.617 231.868 474.634 233.384 473.493C233.866 473.13 222.624 469.558 221.736 469.362C215.374 467.962 207.352 468.615 201.37 466.043C180.894 457.238 162.43 456.466 144.237 442.376C140.246 439.285 132.861 434.942 130.796 430.067C128.678 425.064 135.006 416.532 137.134 412.389C145.043 396.994 151.09 381.056 157.396 364.968C159.939 358.48 163.143 352.228 165.761 345.764C166.381 344.233 167.082 342.617 167.559 341.035C167.842 340.093 169.194 337.619 168.409 338.21C159.013 345.288 150.346 381.037 146.481 392.644C145.461 395.707 143.069 410.609 139.955 411.654C138.1 412.277 140.772 407.815 141.434 405.974C142.75 402.315 143.893 398.608 145.249 394.962C147.959 387.67 152.124 380.992 155.449 373.978C167.032 349.547 179.244 327.163 198.887 308.305C231.207 277.278 298.319 275.417 339.964 269.736C344.573 269.107 387.846 263.948 390.265 271.154C390.574 272.076 387.129 273.158 387.034 273.19C380.069 275.528 372.7 277.287 365.448 278.531C339.522 282.978 312.922 281.56 287.26 287.002C245.834 295.785 207.456 316.34 180.26 348.937C175.682 354.424 169.354 359.937 166.247 366.44C163.791 371.581 163 377.181 160.826 382.435C158.463 388.144 143.579 421.372 146.424 426.832C150.396 434.452 158.245 415.041 159.809 412.184C171.552 390.742 185.297 369.878 199.989 350.355C233.392 305.967 282.299 295.472 334.039 287.698C339.993 286.803 378.432 280.577 384.205 285.247C385.276 286.114 381.99 286.937 380.721 287.474C373.659 290.465 366.538 291.068 359.007 292.118C341.669 294.534 323.456 298.558 306.671 303.548C257.732 318.096 210.435 346.028 181.612 389.21C177.018 396.093 155.568 421.839 161.812 430.13C169.626 440.503 195.002 402.121 197.235 398.882C199.263 395.94 200.904 393.539 203.18 390.434C205.301 387.539 207.716 384.87 210.013 382.111C212.215 379.465 215.601 375.71 217.543 373.66C254.69 334.44 302.641 300.51 356.082 288.762C362.677 287.312 398.532 281.503 403.424 285.461C406.568 288.005 387.678 296.637 387.336 296.785C370.347 304.107 351.704 307.514 334.251 313.544C284.075 330.88 235.482 351.087 195.72 387.12C185.807 396.103 162.022 417.934 170.507 432.712C181.355 451.605 211.782 431.455 221.673 423.156C241.971 406.123 257.886 385.458 276.484 366.783C296.84 346.342 319.662 329.167 345.069 315.519C360.366 307.303 376.292 299.559 392.562 293.444C392.882 293.324 406.428 289.057 406.508 289.292C407.087 291.018 396.848 296.318 396.184 296.671C382.849 303.767 368.134 309.096 354.042 314.518C304.249 333.674 257.987 358.951 219.778 396.394C211.642 404.367 203.248 412.035 194.963 419.849C194.534 420.254 187.558 425.521 187.905 426.556C188.04 426.957 197.602 418.603 198.416 417.844C205.356 411.373 212.281 404.927 218.862 398.076C238.934 377.181 259.488 359.177 284.016 343.839C291.373 339.238 298.845 335.104 306.443 330.917C308.913 329.555 311.244 328.776 313.889 327.889C314.652 327.632 316.347 326.516 316.235 327.313C316.083 328.389 284.985 346.133 283.579 346.948C274.567 352.166 266.232 358.039 258.022 364.411C250.74 370.063 243.814 375.961 237.35 382.562C233.025 386.98 228.732 391.459 224.185 395.655C214.875 404.246 176.954 435.371 196.58 450.196C200.387 453.072 203.572 451.239 207.777 451.092C215.081 450.838 220.902 455.047 227.356 456.792C233.345 458.412 239.629 455.891 245.62 455.74C264.881 455.252 284.156 459.034 303.402 455.493C322.116 452.051 340.846 441.263 359.367 435.969C373.109 432.042 382.547 421.702 394.334 414.395C395.026 413.967 404.041 407.2 404.373 407.429C404.808 407.729 393.463 417.778 392.884 418.267C385.853 424.202 378.705 430.02 371.608 435.88C368.876 438.137 366.116 440.367 363.409 442.652C362.197 443.675 359.388 447.085 359.609 445.514C360.385 439.999 373.537 430.013 377.106 425.784C386.858 414.229 391.754 398.151 397.856 384.546C401.584 376.235 404.075 367.451 407.127 358.902C408.038 356.351 408.945 353.867 409.997 351.38C410.57 350.028 411.547 345.857 411.702 347.317C412.794 357.669 401.454 370.881 396.608 378.935C395.885 380.137 392.915 385.646 393.356 385.95C394.487 386.73 394.774 383.595 395.442 382.394C398.304 377.24 399.214 370.954 400.575 365.227C400.715 364.64 400.894 364.064 401.048 363.481C403.899 352.628 413.632 329.836 408.503 318.56C406.533 314.229 401.155 315.847 397.681 314.998C396.565 314.726 390.562 302.531 388.054 306.17C382.958 313.562 390.155 328.431 392.744 335.591C393.957 338.942 396.034 341.322 397.615 344.429C398.345 345.864 397.48 350.089 398.766 349.12C399.611 348.484 399.127 342.788 399.131 341.698C399.158 335.527 399.714 329.405 399.918 323.239C399.988 321.124 400.067 318.955 399.683 316.865C399.651 316.694 398.304 314.039 398.25 314.173C396.944 317.396 396.682 321.305 395.418 324.644C394.473 327.139 393.733 329.71 392.769 332.197C383.6 355.856 377.772 379.188 370.082 403.282C367.66 410.873 364.951 418.557 361.915 425.911C360.793 428.629 359.606 431.324 358.507 434.036C358.444 434.191 358.104 434.568 358.222 434.449C366.207 426.431 371.072 410.336 375.246 400.386C381.829 384.689 390.127 369.896 396.271 353.977C397.478 350.849 405.828 331.168 399.265 329.488C396.187 328.701 389.625 346.229 388.427 348.57C378.11 368.725 367.84 388.938 357.282 408.954C356.875 409.724 348.719 429.007 346.475 427.814C340.669 424.727 345.859 406.446 346.769 401.586C350.922 379.428 357.891 359.858 366.43 339.133C367.537 336.445 371.599 318.128 374.822 318.122C375.768 318.12 375.378 319.967 375.335 320.912C374.974 328.965 373.785 337.018 372.848 345.019C370.648 363.8 362.31 381.708 357.644 399.946C357.466 400.643 352.045 420.051 351.247 419.654C348.427 418.251 351.057 402.203 351.332 399.737C353.768 377.94 358.912 356.911 368.519 337.163C369.054 336.063 375.516 313.119 379.86 316.113C384.955 319.625 374.713 339.516 373.067 343.464C363.08 367.418 353.083 391.508 341.31 414.632C340.329 416.559 329.683 436.234 325.78 434.865C323.784 434.165 326.929 412.46 327.536 409.522C332.268 386.6 340.548 363.341 349.31 341.706C352.71 333.31 355.075 324.513 358.136 316C359.509 312.184 360.577 308.307 362.236 304.574C362.331 304.358 362.409 303.751 362.551 303.94C364.84 306.978 356.982 323.474 355.939 326.787C348.004 351.991 339.916 377.404 330.184 401.969C326.431 411.442 323.187 421.129 319.365 430.565C318.066 433.775 316.672 437.072 315.072 440.152C314.857 440.565 312.691 443.504 312.605 443.201C309.232 431.399 316.084 412.556 318.734 401.263C324.669 375.971 332.752 349.938 336.366 324.259C336.586 322.697 336.374 327.423 336.154 328.984C335.663 332.475 335.236 335.946 334.463 339.39C332 350.367 328.396 361.105 324.921 371.789C317.146 395.688 307.14 418.932 299.951 443.005C299.522 444.442 295.533 462.887 293.269 463.126C292.129 463.246 292.6 452.476 292.643 451.488C293.185 438.988 295.833 427.166 297.8 414.848C301.298 392.943 303.486 372.594 311.02 351.489C311.563 349.968 315.43 333.314 317.167 333.559C318.366 333.727 313.565 357.785 313.413 358.62C308.854 383.703 301.85 408.192 293.967 432.426C293.956 432.459 287.029 454.233 283.826 451.379C281.384 449.204 283.792 438.055 284.047 435.332C285.796 416.642 288.658 397.816 292.811 379.498C294.292 372.965 296.047 366.683 298.004 360.301C298.581 358.421 299.097 356.522 299.705 354.652C300.029 353.655 300.362 350.526 300.365 351.575C300.419 378.139 288.912 403.549 281.813 428.677C279.652 436.324 277.181 443.881 273.899 451.114C273.661 451.64 272.561 453.535 272.001 453.338C269.381 452.42 274.361 433.037 274.651 431.292C277.979 411.282 280.5 392.454 286.264 372.915C286.802 371.094 291.39 357.055 289.716 354.831C289.445 354.472 287.282 362.814 287.164 363.304C285.97 368.264 284.952 373.267 283.707 378.217C278.688 398.155 273.418 418.236 266.514 437.62C265.189 441.341 264.014 445.456 262.193 449.014C261.55 450.269 260.525 453.192 259.472 452.254C256.94 449.998 259.618 441.566 260.015 438.743C262.003 424.619 265.594 411.025 270.554 397.653C272.296 392.956 274.289 388.371 276.138 383.719C276.255 383.426 279.37 375.622 279.706 376.068C280.708 377.398 276.426 387.766 276.086 388.92C271.747 403.623 265.917 418.963 257.368 431.803C253.488 437.632 249.13 449.514 243.237 453.366C242.539 453.822 240.967 454.915 240.256 453.626C235.95 445.811 262.226 393.783 270.35 391.057C271.121 390.798 268.123 397.54 267.764 398.166C264.894 403.174 261.774 407.412 257.929 411.728C247.932 422.948 238.818 436.026 225.775 443.888C224.345 444.75 215.867 452.314 214.182 450.635C213.558 450.014 227.21 436.111 228.135 435.162C240.214 422.77 254.816 412.935 268.884 403.079C270.154 402.189 280.095 393.166 281.616 394.68C282.345 395.407 280.705 397.039 280.321 397.442C277.073 400.86 261.485 415.397 269.108 419.189" fill="none" opacity="1" stroke="#ffe3a5" stroke-linecap="round" stroke-linejoin="round" stroke-width="21.6574" vectornator:layerName="Curve 4"/>
<path d="M180.361 304.642C178.902 305.146 176.765 305.756 175.253 306.499C175.155 306.547 173.287 307.706 173.627 308.06C174.243 308.703 177.795 304.695 178.599 305.532C179.21 306.17 173.138 309.241 173.884 310.109C175.446 311.93 183.783 307.965 185.66 307.382C197.204 303.798 209.414 298.113 221.66 297.783" fill="none" opacity="1" stroke="#ffe3a5" stroke-linecap="round" stroke-linejoin="round" stroke-width="21.6574" vectornator:layerName="Curve : 5"/>
<path d="M178.539 271.749C177.765 271.825 174.892 276.131 174.103 276.88" fill="none" opacity="1" stroke="#ffe3a5" stroke-linecap="round" stroke-linejoin="round" stroke-width="21.6574" vectornator:layerName="Curve 5"/>
<path d="M199.726 422.892C199.726 397.008 221.664 376.025 248.725 376.025C275.787 376.025 297.725 397.008 297.725 422.892C297.725 448.776 275.787 469.759 248.725 469.759C221.664 469.759 199.726 448.776 199.726 422.892Z" fill="#ffffff" fill-rule="nonzero" opacity="1" stroke="#ffffff" stroke-linecap="butt" stroke-linejoin="round" stroke-width="10" vectornator:layerName="Oval 1"/>
<path d="M254.661 431.432C253.382 433.99 251.348 436.074 250.27 437.798C249.948 438.315 249.283 439.335 249.283 439.335C249.283 439.335 254.324 430.096 255.429 432.859C257.31 437.562 244.488 447.544 251.148 439.774C252.288 438.444 250.539 442.282 250.38 442.627C249.51 444.512 247.156 448.729 244.783 449.322C242.279 449.948 236.588 442.299 235.344 440.432C230.51 433.182 246.772 426.649 251.807 430.006C252.117 430.212 249.087 433.592 248.844 433.957C247.478 436.005 246.425 440.873 244.234 442.188C242.96 442.953 240.552 438.716 240.283 437.908C240.051 437.213 239.874 435.195 240.392 435.713C240.982 436.302 241.454 438.788 242.039 439.664C250.029 451.649 233.982 446.92 236.331 443.396" fill="none" opacity="1" stroke="#ff8f9b" stroke-linecap="round" stroke-linejoin="round" stroke-width="10" vectornator:layerName="Curve 1"/>
<g opacity="1" vectornator:layerName="g">
<path d="M265 184.6C244.3 187.2 218.6 194.9 202.2 203.5L191.6 209L183.1 206.9C166 202.6 151.5 205.5 135.3 216.3C108.5 234.2 75.2 274.6 68.4 297.5C66 305.4 66 322.1 68.3 331C71.1 341.8 76.2 350.8 83.3 357.9C88.7 363.3 99.3 370.9 103.2 372.2C103.9 372.5 103.3 375.1 101.7 379C96.4 392.4 95.5 397.4 95.5 414.5C95.5 429.5 95.7 431.1 98.4 439.4C103.4 454.6 113.7 467.7 127.6 476.6C143.6 486.8 174.3 498.9 196.2 503.5C239.5 512.7 300.1 511.6 344 500.9C371.4 494.2 398.7 481.2 416.6 466.3C434.6 451.3 446.8 424.7 451.9 389.5L453.6 377.5L458.2 376.8C490.4 372.2 512.1 347.5 509.5 318.2C507.3 292.5 490.2 260.6 466.6 238.3C446.8 219.5 425.8 209.6 403.3 208.3C390.7 207.6 382.7 209 374.2 213.5L367.9 216.8L357.1 209.6C339.7 197.9 321.9 190.3 303 186.5C295.5 185 271.6 183.8 265 184.6ZM290.5 200.1C316.1 203.2 337.9 212.5 358.6 229.2C363.2 233 367.6 236 368.5 236C369.3 236 372.4 233.8 375.4 231.1C382.6 224.6 386.1 223.5 399.5 223.6C417.1 223.7 430 228.4 446.5 240.7C478.7 264.6 501 310.5 492.6 335.5C489.3 345.7 480.2 354.4 468.2 359.1C463.5 361 460.5 361.4 451 361.4C440.1 361.5 439.2 361.4 434.1 358.5C419 350.1 407.4 325.5 399 283.6C397.1 274.1 391.4 270.4 385.9 274.9C382.5 277.6 382.9 282.1 387.9 302.5C397.9 342.7 410.1 363.4 429 372.5C433.1 374.4 437 376 437.7 376C438.6 376 438.9 376.8 438.6 378.2C438.3 379.5 437.3 385.4 436.4 391.5C432.4 418.6 421.4 442.8 407.7 454.3C391.7 468 366.8 479.7 340.7 486C288.5 498.6 220.8 497.4 178.3 483.2C125.5 465.5 108.7 447.4 110.3 410C110.9 396.4 113.1 388.4 119.7 376C127.7 361.1 127.7 361.2 128.3 349.5C130.7 305.6 151.4 262.8 183.8 234.4C198.5 221.5 212.7 213.5 231 207.6C254.7 199.9 271.7 197.8 290.5 200.1ZM176 220.3C176 220.5 171.6 225.1 166.2 230.6C134.6 262.7 116.6 301.9 113.1 346.8C112.6 353 112 358.4 111.7 358.7C110.3 360 98.4 352.2 93.1 346.4C86.3 339.2 83.5 332.8 81.7 320.9C79.6 306.3 84.4 292.9 98.2 274.5C118 248.1 140.7 227.6 156.4 221.9C160.7 220.4 176 219.1 176 220.3Z" fill="#000000" fill-rule="nonzero" opacity="1" stroke="none" vectornator:layerName="path"/>
<path d="M184.535 346.329C180.722 347.685 179.526 353.436 176.469 355.824C174.412 357.432 169.29 352.687 169.29 352.687C169.29 352.687 173.111 356.913 172.589 359.329C172.317 360.587 170.43 360.07 169.6 359.891C166.929 359.314 165.97 350.952 165.528 350.898C164.131 350.727 160.731 355.598 158.863 351.142C155.257 342.545 175.582 333.229 179.002 341.669C180.617 345.654 173.843 350.753 171.613 346.734C169.629 343.161 174.63 338.596 178.085 340.495C182.868 343.124 178.146 356.908 172.955 355.26C167.977 353.679 175.626 342.257 180.645 345.587C185.385 348.731 180.123 357.018 176.525 358.617C166.425 363.108 174.702 345.392 179.019 349.103C182.086 351.74 174.334 358.289 171.522 357.207C169.395 356.389 168.271 350.752 171.164 350.395" fill="#ffffff" fill-rule="nonzero" opacity="0" stroke="#ffffff" stroke-linecap="round" stroke-linejoin="round" stroke-width="21.6574" vectornator:layerName="Curve 1"/>
<path d="M334.194 346.642C330.863 350.518 330.981 356.23 325.416 358.704C314.871 363.392 306.693 344.679 318.069 339.621C336.245 331.541 328.026 361.421 318.975 357.117C315.596 355.511 325.955 337.182 328.898 345.462" fill="#ffffff" fill-rule="nonzero" opacity="0" stroke="#ffffff" stroke-linecap="round" stroke-linejoin="round" stroke-width="21.6574" vectornator:layerName="Curve 2"/>
<path d="M151.965 355.436C151.965 341.403 162.139 330.027 174.691 330.027C187.242 330.027 197.417 341.403 197.417 355.436C197.417 369.469 187.242 380.845 174.691 380.845C162.139 380.845 151.965 369.469 151.965 355.436Z" fill="#000000" fill-rule="nonzero" opacity="1" stroke="#000000" stroke-linecap="butt" stroke-linejoin="round" stroke-width="21.6574" vectornator:layerName="Oval 1"/>
<path d="M304.231 355.891C304.231 341.858 314.406 330.482 326.957 330.482C339.509 330.482 349.684 341.858 349.684 355.891C349.684 369.924 339.509 381.3 326.957 381.3C314.406 381.3 304.231 369.924 304.231 355.891Z" fill="#000000" fill-rule="nonzero" opacity="1" stroke="#000000" stroke-linecap="butt" stroke-linejoin="round" stroke-width="21.6574" vectornator:layerName="Oval 2"/>
<path d="M165.8 320.4C155.5 324.1 149.2 330 144.3 340.7C142 345.6 141.6 347.9 141.6 355C141.6 366.8 144.3 373.5 152.5 381.7C157.8 387 159.6 388.1 165.9 390C178.1 393.8 189.4 390.6 198.4 381C213.2 365.1 212 340.4 195.7 326.5C187.9 319.8 174.9 317.2 165.8 320.4ZM174.7 332.7C178.6 334.5 182.5 339.8 183.5 344.7C185.1 352.5 179.3 361.6 171.2 364.1C167.5 365.2 166.5 365.1 162.9 363.5C160.7 362.5 157.8 360.4 156.5 358.8C145 345.2 159 325.2 174.7 332.7Z" fill="#000000" fill-rule="nonzero" opacity="0" stroke="none" vectornator:layerName="path"/>
<path d="M318.5 320.3C311.6 322.6 308.5 324.7 303.2 330.5C290.1 344.8 290.1 365.6 303.1 380.4C312.5 391 327.1 394.3 339.8 388.5C352.8 382.6 360.3 370.5 360.4 355C360.5 347.5 360.1 345.7 357.3 339.8C351.4 327.3 341.3 320 329 319.4C325.3 319.2 320.8 319.6 318.5 320.3ZM326.7 332.7C330.6 334.5 334.5 339.8 335.5 344.7C337.1 352.5 331.3 361.6 323.2 364.1C319.5 365.2 318.5 365.1 314.9 363.5C312.7 362.5 309.8 360.4 308.5 358.8C297 345.2 311 325.2 326.7 332.7Z" fill="#000000" fill-rule="nonzero" opacity="0" stroke="none" vectornator:layerName="path"/>
<path d="M238.5 386.7C234.1 388.9 232 392 232 396.1C232 400.7 234.8 404.3 240 406.4C243.4 407.7 244 408.4 244 410.9C244 414.5 239.2 419.5 233.3 422.2C229.8 423.7 228.3 423.9 225.2 423.1C220.8 421.9 217.6 418.7 216.6 414.7C215.1 408.5 210 411 210 418C210 423.8 215.2 429.9 222.2 432.2C222.6 432.4 223.7 435.2 224.5 438.4C226.6 446.6 230.8 453.8 235 456.6C239 459.4 245.6 459.8 249.8 457.6C255.6 454.6 262.6 444.8 265 436.4C266.1 432.8 266.7 432.2 270.4 431.2C278.9 429 286 421.8 286 415.5C286 413.7 285.3 411.7 284.4 410.9C283.1 409.8 282.1 410.4 277.7 415.2C273.6 419.5 271.5 421 267.8 421.9C261.8 423.3 256.4 422.2 251.6 418.5C248.6 416.2 248 415.2 248 411.9C248 408.4 248.3 408 252.3 406.2C259.5 403 262 398.3 259.5 392.4C256.9 386.1 245.5 383 238.5 386.7ZM258.9 432.7C260 433.4 252.5 446.2 249.4 448.9C243.2 454.4 237.7 452.1 233.1 442C229.9 434.9 230.2 433.4 235.8 431.6C238.4 430.7 241.6 429.1 242.9 428.1C245.4 426.2 245.4 426.2 251.9 429.3C255.5 431.1 258.7 432.6 258.9 432.7Z" fill="#000000" fill-rule="nonzero" opacity="1" stroke="none" vectornator:layerName="path"/>
</g>
<path d="M436.475 345.057C439.322 349.252 441.091 351.153 449.188 352.154C454.433 352.802 461.248 351.903 468.692 347.036" fill="none" opacity="1" stroke="#ffe3a5" stroke-linecap="round" stroke-linejoin="round" stroke-width="21.6574" vectornator:layerName="Curve 6"/>
<path d="M277.186 149.849C266.834 145.413 255.094 150.226 246.229 155.682C242.599 157.916 238.141 158.384 234.788 161.178C220.188 173.345 219.536 189.454 223.796 206.492C225.833 214.642 228.803 223.598 237.256 227.355C242.834 229.834 249.005 230.091 254.977 230.944C273.003 233.519 285.177 237.095 303.096 227.804C312.302 223.03 319.92 216.906 327.996 210.53C328.745 209.939 334.898 204.982 335.736 205.819C336.527 206.611 334.598 207.962 334.165 208.287C328.059 212.867 321.297 216.531 315.21 221.186C314.88 221.438 310.803 225.416 310.162 224.775C309.56 224.173 314.191 218.68 314.425 218.382C319.579 211.822 324.811 205.534 329.679 198.753C331.59 196.092 333.987 193.866 336.409 191.687C336.548 191.562 336.927 191.283 336.745 191.238C334.87 190.769 329.606 195.856 328.445 196.734C320.042 203.093 312.104 210.496 304.666 217.933C301.693 220.906 298.938 224.093 295.917 227.018C295.143 227.769 293.027 229.873 293.225 228.813C295.054 219.063 314.745 203.463 321.715 196.622C324.601 193.789 327.444 190.884 330.352 188.097C331.306 187.183 332.19 186.195 333.156 185.293C333.658 184.824 335.164 183.423 334.614 183.835C327.632 189.072 320.961 195.342 314.985 201.669C309.664 207.304 304.592 213.227 299.619 219.167C297.507 221.689 295.283 224.101 293.113 226.57C292.537 227.225 291.595 229.305 291.319 228.477C290.846 227.059 297.173 219.113 297.6 218.494C305.084 207.649 314.342 198.068 323.958 189.107C324.374 188.72 333.658 179.95 333.156 179.573C331.008 177.962 319.68 188.057 318.462 188.995C306.6 198.135 290.754 211.693 284.589 225.785C284.343 226.346 285.337 224.813 285.71 224.327C286.996 222.655 288.255 220.963 289.524 219.279C292.696 215.071 295.997 210.949 299.282 206.829C307.76 196.196 316.903 185.957 327.548 177.442C328.167 176.946 336.448 169.442 337.643 170.039C338.165 170.3 336.755 170.799 336.297 171.161C335.128 172.083 333.978 173.03 332.819 173.965C331.265 175.219 329.656 176.403 328.109 177.666C323.098 181.757 318.239 186.021 313.527 190.453C304.946 198.524 297.208 207.477 289.636 216.475C289.381 216.778 283.582 224.849 280.887 225.897C278.823 226.7 282.134 221.576 283.355 219.728C286.269 215.318 288.757 212.236 292.216 208.175C299.142 200.045 306.844 192.585 314.312 184.957C316.599 182.622 318.517 180.473 320.369 177.778C320.682 177.323 321.675 176.137 321.154 176.32C316.769 177.868 312.939 182.541 309.714 185.63C299.981 194.951 292.394 205.801 285.038 217.036C283.03 220.102 281.566 224.097 278.981 226.682C277.405 228.258 280.485 222.465 281.56 220.513C284.449 215.268 287.499 210.174 290.758 205.146C296.428 196.398 302.763 188.355 309.826 180.695C312.328 177.981 315.121 175.503 317.789 172.955C318.612 172.17 321.203 169.969 320.257 170.6C307.429 179.152 296.566 193.29 287.617 205.483C283.863 210.598 280.282 215.814 276.737 221.074C274.084 225.011 272.727 226.971 272.587 226.458C269.992 216.943 295.613 190.166 301.862 183.835C305.644 180.004 309.415 176.099 313.527 172.619C315.057 171.324 318.984 167.128 318.35 169.03C317.049 172.934 309.443 178.903 306.797 182.041C299.201 191.048 292.022 200.397 285.15 209.97C281.298 215.334 277.68 220.838 274.045 226.345C273.08 227.808 271.554 232.42 271.129 230.72C269.818 225.474 281.526 217.157 279.766 211.876C279.517 211.131 271.488 215.249 271.241 215.466C268.852 217.568 264.465 229.41 261.483 228.813C260.107 228.538 258.73 226.902 257.782 226.009C247.267 216.113 271.419 217.016 269.11 223.429C267.527 227.828 236.608 224.231 232.32 221.522C227.871 218.712 231.11 214.443 235.124 213.895C240.319 213.187 257.281 215.974 259.24 221.522C260.707 225.681 251.906 224.224 250.715 223.766C244.264 221.285 229.726 213.787 232.881 204.586C233.83 201.819 236.632 199.73 238.938 198.192C248.282 191.963 247.48 220.644 237.031 218.27C224.403 215.4 230.717 183.222 234.003 175.086C234.131 174.77 237.875 165.118 239.162 165.44C241.916 166.129 238.153 171.047 237.256 173.74C234.9 180.807 231.42 187.475 228.17 194.154C227.596 195.335 224.381 200.956 224.132 200.211C222.486 195.272 225.736 186.311 226.824 181.816C230.316 167.394 239.311 157.375 250.827 148.616C252.951 147.001 259.487 141.834 262.492 142.783C265.323 143.677 260.62 149.702 259.801 150.971C254.452 159.249 248.646 167.191 243.761 175.759C241.56 179.621 241.331 180.327 239.499 184.06C238.836 185.41 237.066 189.544 237.48 188.097C240.645 177.018 250.413 168.009 258.791 160.729C262.242 157.731 265.679 154.859 269.222 151.981C270.029 151.325 271.69 149.034 271.69 150.074C271.69 152.454 261.547 158.782 260.025 160.056C252.538 166.324 244.358 172.292 238.265 180.022C235.141 183.985 234.175 185.503 231.76 189.219C231.042 190.323 229.274 193.766 229.516 192.472C229.682 191.589 230.271 190.001 230.75 189.107C231.659 187.41 232.579 185.719 233.554 184.06C233.964 183.362 234.446 182.71 234.9 182.041C236.427 179.793 237.939 177.536 239.499 175.311C242.803 170.597 242.352 171.527 245.892 166.786C250.402 160.748 254.909 154.854 260.249 149.513C261.244 148.518 258.01 151.228 256.996 152.205C255.44 153.706 253.683 155.529 252.286 157.14C246.726 163.548 242.125 170.622 237.592 177.778C236.13 180.086 230.999 183.623 233.442 184.845C233.57 184.909 237.752 179.572 241.854 174.974C246.442 169.833 251.557 165.656 257.109 161.627C257.793 161.13 265.329 155.382 266.306 157.14C266.954 158.307 257.85 168.05 257.782 168.132C250.063 177.421 243.073 187.808 237.48 198.529C237.205 199.055 233.608 205.907 232.657 208.511C231.879 210.641 228.833 215.379 231.087 215.129C231.51 215.082 231.644 214.48 231.872 214.12C235.047 209.106 237.881 203.884 241.069 198.865C246.444 190.405 252.776 182.635 258.006 174.077C259.623 171.431 261.08 168.415 262.829 165.889C263.549 164.849 265.972 161.989 264.96 162.748C262.741 164.413 259.349 170.46 258.23 172.058C257.061 173.729 253.759 178.459 252.734 180.022C251.128 182.471 246.547 190.726 246.453 190.902C243.688 196.087 240.284 202.987 240.284 209.072C240.284 210.794 242.411 206.34 243.2 204.81C243.807 203.635 244.481 202.497 245.107 201.333C247.024 197.765 248.882 194.168 250.94 190.677C257.883 178.899 265.582 168.186 275.84 159.047C277.066 157.954 282.87 152.101 284.813 152.878C286.556 153.575 282.771 156.041 281.56 157.477C280.619 158.593 279.693 159.721 278.756 160.842C274.636 165.771 270.513 170.721 266.53 175.759C258.691 185.676 248.46 200.046 245.892 212.886C245.758 213.559 246.595 211.705 246.902 211.091C247.282 210.331 249.764 205.439 250.715 203.688C255.646 194.616 254.187 197.208 258.903 189.219C265.081 178.755 288.759 150.765 301.189 148.279C303.171 147.883 296.662 155.28 295.469 156.579C292.425 159.893 289.341 163.171 286.383 166.562C274.341 180.366 265.484 195.624 254.641 210.082C253.345 211.81 256.136 206.005 257.221 204.137C259.575 200.086 260.463 198.443 262.829 195.276C270.327 185.24 279.276 177.377 289.3 169.927C292.488 167.557 295.716 165.28 298.946 162.973C300.036 162.194 302.748 159.654 302.423 160.954C301.627 164.136 289.831 173.964 288.066 175.872C281.943 182.491 276.457 189.693 271.129 196.958C267.202 202.314 263.677 207.8 260.361 213.559C259.852 214.443 258.545 217.206 258.903 216.251C265.612 198.36 285.686 182.512 300.18 171.497C302.001 170.113 313.477 159.975 316.556 161.515C317.692 162.083 314.888 163.435 313.976 164.319C312.057 166.177 310.147 168.048 308.143 169.815C303.975 173.489 299.773 177.132 295.805 181.031C284.2 192.437 275.28 205.236 265.521 218.045C265.155 218.526 265.913 216.897 266.194 216.363C267.345 214.176 267.641 213.692 268.886 211.876C272.617 206.435 276.129 201.782 280.439 196.734C284.137 192.401 309.514 168.581 314.873 168.581C316.731 168.581 312.597 171.53 311.284 172.843C308.312 175.816 305.305 178.753 302.311 181.704C294.677 189.227 287.578 197.344 280.887 205.707C279.355 207.623 277.837 209.551 276.401 211.54C275.508 212.777 273.428 216.741 273.709 215.241C276.564 200.016 301.853 181.18 314.088 173.516C317.153 171.596 323.867 166.327 327.996 166.786C328.838 166.88 322.076 173.562 323.285 173.965C325.264 174.624 330.464 167.538 330.464 165.552C330.464 164.396 324.154 167.463 323.285 166.45C321.57 164.448 324.98 158.943 322.949 157.589C320.452 155.924 315.721 161.035 313.303 159.496C311.713 158.484 312.919 155.882 311.172 154.673C309.492 153.51 307.303 155.594 305.564 155.346C302.492 154.907 298.062 151.213 294.011 150.635C291.719 150.307 286.774 151.401 284.925 149.737C283.286 148.262 286.742 148.055 287.281 148.055C290.235 148.055 309.609 150.276 302.311 148.055C294.949 145.814 286.93 147.542 279.429 147.831C270.526 148.173 270.948 144.067 259.576 148.616C252.55 151.426 245.2 153.961 238.041 156.467C238.039 156.468 235.267 157.761 235.012 157.252C232.882 152.992 245.652 147.766 244.771 144.241C244.631 143.683 239.011 147.993 238.938 148.055C236.091 150.478 225.521 163.032 223.011 163.534C222.446 163.646 225.913 158.049 226.151 157.701C228.167 154.761 230.445 152.049 232.545 149.177C233.437 147.955 236.974 145.699 235.461 145.699C234.278 145.699 222.524 159.742 221.328 161.29C219.482 163.68 219.42 163.776 217.627 166.338C217.185 166.968 216.161 169.045 216.505 168.357C217.481 166.405 218.493 164.445 219.534 162.524C220.966 159.88 222.504 157.314 223.459 154.448C224.86 150.245 214.967 170.119 213.701 171.385C212.714 172.372 214.021 168.61 214.262 167.235C214.865 163.786 215.695 160.39 216.169 156.916C216.422 155.058 218.225 150.343 216.617 151.308C213.973 152.894 213.092 160.974 212.355 163.758C211.995 165.118 211.676 169.089 211.121 167.796C209.801 164.714 212.701 157.658 213.028 154.448C213.199 152.773 214.187 148 213.252 149.401C211.304 152.323 210.694 157.25 209.775 160.617C209.367 162.114 209.929 165.797 208.542 165.104C208.519 165.092 209.169 153.506 208.542 153.775C206.576 154.617 206.025 162.422 205.737 164.207C205.545 165.402 204.635 168.879 205.177 167.796C205.881 166.387 208.081 157.86 206.523 156.692C206.065 156.349 205.348 165.8 205.064 166.225C204.689 166.789 203.477 159.815 204.84 161.178C205.93 162.268 204.077 170.959 203.606 172.843C203.463 173.414 201.74 176.024 202.148 176.432C202.176 176.461 206.411 163.197 205.064 163.421C202.716 163.813 202.372 174.425 202.372 176.545C202.372 189.896 194.688 203.909 198.11 217.597C198.219 218.031 201.814 220.264 202.372 220.962C213.041 234.297 221.824 233.475 235.237 240.927C258.802 254.019 299.405 264.158 326.426 260.78C331.082 260.198 337.721 259.853 342.129 258.2C344.556 257.29 347.243 253.601 349.981 253.601C353.925 253.601 357.767 252.737 361.421 250.909C373.817 244.712 371.167 221.388 372.862 209.521C373.424 205.589 371.333 198.87 373.759 195.837C379.143 189.108 408.89 187.632 417.728 186.527C418.863 186.385 431.636 185.909 431.636 186.191C431.636 186.353 426.224 184.953 425.691 184.62C419.474 180.734 412.442 178.622 406.175 174.862C402.083 172.407 396.274 172.94 392.042 170.824C381.119 165.362 369.285 160.734 358.056 156.243C347.47 152.008 336.944 147.82 326.314 143.568C319.27 140.751 312.86 135.74 305.451 134.259C301.606 133.49 296.272 134.595 292.104 134.595C281.992 134.595 270.079 133.256 260.025 134.932C256.205 135.568 244.524 136.973 241.293 134.819C240.503 134.293 247.911 135.223 247.911 134.371C247.911 133.921 243.802 134.977 243.537 135.044C240.28 135.858 237.231 135.38 234.115 135.38C233.478 135.38 232.208 135.268 232.208 135.268C232.208 135.268 240.072 135.947 238.265 135.044C235.334 133.578 231.379 136 228.282 135.38C218.268 133.377 196.809 133.56 186.557 135.268C180.606 136.26 173.239 133.186 167.602 134.595C166.086 134.974 163.762 134.673 162.554 134.371C162.348 134.319 160.296 133.414 160.423 133.922C160.908 135.861 172.778 138.537 174.668 140.428C181.243 147.002 190.363 147.863 198.222 153.102C200.454 154.59 203.013 158.366 205.737 159.047C207.102 159.388 212.471 154.028 214.374 153.327C223.231 150.063 236.687 148.284 244.434 143.12C245.281 142.555 243.89 142.393 243.537 142.11C240.512 139.69 231.394 142.788 228.058 143.344C227.577 143.424 226.733 143.803 226.263 143.568C225.606 143.24 229.887 138.301 230.189 137.848C230.788 136.95 229.583 134.64 229.628 134.595C230.062 134.161 238.764 135.879 240.06 135.717C250.038 134.469 260.508 135.655 270.232 134.034C271.961 133.746 279.498 134.193 280.439 135.605C280.706 136.005 273.662 136.295 273.372 136.278C268.593 135.996 263.968 135.138 259.128 135.492C244.368 136.572 230.051 140.229 219.309 150.971C218.372 151.909 221.061 148.978 221.889 147.943C222.634 147.012 227.676 139.372 226.6 138.297C226.552 138.248 224.743 140.086 224.357 140.428C222.228 142.306 215.023 150.522 212.131 150.522C211.87 150.522 216.166 142.488 216.954 141.437C217.779 140.337 214.889 143.274 214.038 144.353C213.008 145.657 211.895 147.727 210.56 148.728C210.369 148.871 210.852 148.348 211.009 148.167C212.332 146.64 213.571 145.009 214.711 143.344C215.193 142.639 216.549 140.781 215.72 140.989C211.583 142.023 202.095 156.472 208.093 145.475C208.775 144.224 209.405 143.145 210.224 141.998C210.893 141.061 208.844 143.844 208.205 144.802C206.862 146.817 205.263 148.653 203.718 150.522C203.246 151.095 202.128 152.935 202.26 152.205C202.483 150.982 203.764 148.862 204.279 147.831C204.928 146.533 204.618 147.19 205.513 145.026C208.485 137.845 200.97 151.374 200.017 149.849C199.416 148.888 203.246 141.573 200.802 144.017C199.593 145.226 198.175 146.463 196.652 147.27C194.024 148.661 195.389 143.198 193.512 142.447C191.99 141.838 183.27 140.342 182.856 141.998C182.411 143.777 186.543 141.472 188.352 141.774C192.236 142.421 195.454 141.467 199.344 141.662C202.296 141.809 203.165 144.702 204.504 146.709C205.035 147.506 207.155 148.524 206.298 148.952C205.433 149.385 202.727 145.159 201.924 144.69C198.468 142.674 192.933 140.708 189.025 139.643C188.143 139.402 173.375 140.601 174.892 138.072C175.708 136.713 184.606 139.59 185.772 139.979C190.919 141.695 214.623 147.467 215.496 154.448C216.258 160.55 212.25 166.435 211.682 172.395C211.467 174.65 211.265 176.812 210.673 179.012C210.424 179.938 210.092 182.561 209.663 181.704C208.921 180.219 210.721 175.837 211.121 174.301C211.465 172.984 212.243 169.015 212.243 170.376C212.243 175.852 209.993 181.635 209.102 186.976C208.204 192.363 208.551 189.167 208.317 193.145C208.247 194.34 207.439 197.654 208.205 196.734C209.764 194.863 209.558 190.631 209.887 188.322C210.046 187.211 210.701 184.081 210 184.957C208.69 186.594 207.37 205.072 207.644 205.483C208.605 206.924 208.577 202.141 208.878 200.436C209.551 196.623 209.663 192.857 209.663 188.995C209.663 187.942 209.476 191.093 209.327 192.135C208.625 197.046 209.323 191.605 208.766 196.846C208.326 200.977 208.975 206.86 207.083 210.642C206.448 211.913 207.083 207.801 207.083 206.38C207.083 204.074 207.027 201.844 206.971 199.538C206.944 198.414 206.129 195.818 207.196 196.173C208.148 196.491 206.728 215.21 208.093 217.485C209.195 219.322 208.636 213.23 208.766 211.091C208.886 209.105 208.592 205.687 209.775 203.913C209.978 203.609 210.629 203.234 211.009 203.576C213.891 206.17 214.241 226.034 216.73 226.345C217.249 226.41 217.621 211.761 217.627 211.764C219.62 212.76 219.314 226.366 219.421 228.14C219.474 229.002 218.783 230.72 219.646 230.72C220.397 230.72 219.839 229.227 219.87 228.477C220.051 224.146 219.401 219.122 217.627 215.129C217.093 213.927 218.187 217.707 218.636 218.943C219.474 221.247 220.128 223.92 220.207 226.345C220.257 227.919 220.929 232.221 219.87 231.056C216.681 227.548 216.682 221.312 213.701 217.372C206.647 208.051 212.142 223.13 214.711 225.897C216.904 228.259 220.919 213.468 213.14 215.802C211.444 216.311 213.899 221.153 215.271 221.41C219.261 222.158 224.801 220.016 228.619 218.943C241.877 215.214 254.727 216.363 268.325 216.363C272.245 216.363 283.105 213.484 286.271 216.363C291.021 220.681 283.789 225.637 280.551 227.579C275.945 230.343 253.593 232.922 256.211 243.394C256.635 245.088 277.149 250.124 280.551 250.909C287.13 252.428 293.728 255.844 300.404 256.63C316.088 258.475 331.96 255.442 347.064 251.246C353.05 249.583 357.536 245.026 363.104 243.17C363.982 242.877 361.801 244.491 361.085 245.077C360.459 245.589 355.67 249.362 355.252 248.666C353.893 246.401 364.775 237.474 362.094 238.011C354.877 239.454 349.29 246.594 342.69 249.563C342.33 249.725 341.306 250.095 341.12 249.676C339.61 246.279 343.878 241.675 345.83 239.469C346.794 238.379 349.999 235.412 348.971 236.44C345.293 240.118 333.878 248.743 328.445 247.657C322.613 246.49 324.098 236.418 320.818 235.543C314.788 233.935 308.111 241.127 301.413 240.254C299.003 239.939 277.722 238.757 278.532 243.619C279.414 248.912 309.859 247.545 314.425 247.545C319.998 247.545 325.408 247.013 330.8 245.526C331.544 245.321 333.276 245.318 332.932 244.628C332.763 244.291 330.421 244.503 330.128 244.516C322.684 244.854 314.739 245.006 307.47 246.647C306.886 246.779 300.425 248.687 301.638 249.9C303.262 251.525 310.767 247.972 312.069 247.432C321.227 243.635 334.059 238.678 341.232 231.505C341.646 231.091 340.16 231.983 339.661 232.29C338.456 233.032 332.758 238.375 333.156 238.347C341.214 237.791 347.442 228.701 355.477 228.701C359.175 228.701 353.15 235.353 352.785 236.328C352.745 236.433 352.68 236.704 352.785 236.665C355.956 235.475 355.6 232.001 357.608 230.496C357.703 230.424 359.118 233.805 359.963 233.636C367.872 232.054 367.415 201.714 364.562 196.958C357.809 185.704 334.295 207.47 329.006 207.951C327.395 208.097 330.681 205.171 331.698 203.913C332.927 202.391 340.542 193.769 337.755 191.911C336.355 190.978 334.906 193.75 333.717 194.94C332.126 196.53 318.843 211.275 321.491 213.334C324.774 215.888 339.138 200.57 342.017 204.025C344.828 207.398 327.912 226.917 326.09 229.374C324.543 231.458 322.968 233.522 321.491 235.655C320.635 236.892 318.137 240.646 318.911 239.357C323.787 231.23 331.19 224.375 338.652 218.718C341.582 216.497 344.506 214.332 347.513 212.213C348.052 211.833 350.451 210.4 350.429 210.53C349.871 213.882 336.542 226.531 338.652 230.047C339.226 231.003 340.481 228.741 341.232 227.916C346.399 222.231 349.548 213.707 355.589 208.96C356.412 208.313 357.297 206.584 358.169 207.165C358.252 207.221 348.912 218.494 348.635 218.83C346.134 221.867 341.776 230.951 337.867 232.515C336.407 233.098 339.135 229.634 339.886 228.252C340.309 227.474 346.088 215.578 345.494 215.578C343.144 215.578 334.088 235.959 330.913 236.665C330.716 236.708 330.708 236.304 330.688 236.104C330.529 234.512 333.909 229.515 334.614 228.477C338.012 223.474 342.775 219.964 347.513 216.363C349.098 215.158 350.779 214.083 352.448 212.998C353.459 212.341 355.906 210.04 355.589 211.203C354.969 213.477 343.008 225.773 345.718 227.467C348.188 229.011 358.054 214.859 360.188 213.334C361.184 212.623 358.867 215.4 358.281 216.475C357.366 218.151 354.475 221.783 354.916 223.766C355.211 225.095 364.337 212.774 364.225 212.774C363.125 212.774 359.916 218.561 359.178 219.616C358.542 220.525 357.383 223.529 357.383 222.42C357.383 220.444 359.935 217.565 360.524 215.69C362.254 210.184 362.879 203.745 362.879 197.968C362.879 197.667 363.069 197.071 362.767 197.071C360.341 197.071 361.048 201.646 359.739 203.688C359.076 204.723 352.265 213.73 350.317 209.184C348.273 204.416 352.207 200.556 356.15 198.529C358.425 197.358 365.532 196.085 363.104 195.276C361.059 194.594 347.097 203.949 344.709 205.371C343.742 205.946 341.615 207.382 341.456 206.268C340.93 202.587 360.02 190.448 363.216 189.219C365.627 188.292 368.073 187.403 370.507 186.527C371.639 186.119 374.927 185.249 373.759 184.957C372.039 184.527 360.86 191.371 360.86 192.023C360.86 192.149 367.489 189.166 367.815 188.995C371.884 186.853 375.915 185.173 380.265 183.723C381.648 183.262 377.581 184.864 376.227 185.406C374.718 186.009 373.187 186.567 371.74 187.312C371.508 187.432 362.664 191.601 363.44 192.248C364.248 192.921 372.287 189.112 373.311 188.77C380.006 186.539 384.807 184.916 391.369 183.723C394.84 183.092 398.716 182.153 402.249 182.153C403.434 182.153 404.763 182.655 405.838 182.489C406.505 182.387 408.531 182.377 407.857 182.377C402.647 182.377 398.669 177.793 393.5 176.881C385.485 175.467 376.94 175.436 369.161 172.843C364.908 171.426 362.338 167.121 358.505 164.992C350.531 160.562 341.426 158.523 333.829 153.775C330.241 151.533 325.844 150.958 322.276 148.728C319.448 146.96 315.42 141.935 312.181 141.437C310.669 141.205 297.555 141.527 298.385 139.867C299.699 137.24 311.76 138.606 310.723 143.793C309.11 151.859 301.795 157.612 299.058 165.216C298.873 165.731 298.452 167.863 299.619 167.684C303.576 167.075 307.905 162.741 310.723 160.169C312.144 158.871 316.188 155.486 315.77 157.364C315.291 159.524 309.381 161.799 307.695 162.973C307.203 163.315 304.962 165.264 305.227 165.216C309.223 164.489 322.191 151.289 324.744 152.99C326.173 153.943 316.988 159.715 318.575 160.169C323.628 161.612 329.62 159.871 334.838 160.393C344.199 161.329 353.203 164.431 362.767 165.328C363.876 165.432 375.105 165.951 375.105 167.235C375.105 167.56 371.681 168.256 371.292 168.581C368.723 170.721 366.487 173.353 363.889 175.535C363.119 176.182 360.18 178.642 363.104 178.788C365.285 178.897 367.554 178.444 369.721 178.227C370.958 178.103 372.189 177.928 373.423 177.778C375.399 177.539 378.343 176.709 380.377 177.218C381.503 177.499 378.149 177.88 377.012 178.115C375.447 178.439 373.865 178.683 372.301 179.012C367.748 179.971 361.516 180.901 358.169 184.62C357.117 185.789 361.348 185.198 362.879 184.845C364.481 184.475 372.154 182.996 372.413 180.919C372.505 180.187 362.942 183.344 362.543 183.499C356.008 186.04 349.166 188.523 343.475 192.696C343.32 192.81 342.563 193.563 342.69 193.818C342.949 194.337 343.846 193.615 344.372 193.369C348.759 191.322 353.144 188.77 357.383 186.415C357.612 186.288 364.727 181.926 364.562 181.816C362.484 180.431 347.964 190.86 345.606 190.565C345.241 190.519 346.54 189.299 346.616 189.219C348.069 187.68 349.21 186.546 350.878 185.181C353.638 182.923 356.343 180.658 358.954 178.227C359.941 177.308 363.106 175.311 361.758 175.311C359.203 175.311 345.841 184.962 345.606 184.845C344.565 184.324 347.312 183.259 348.186 182.489C349.306 181.503 357.432 174.673 355.813 172.731C355.121 171.9 348.521 176.687 347.737 177.218C346.621 177.974 343.589 180.558 344.372 179.461C346.27 176.805 351.349 169.807 354.355 168.805C355.192 168.526 352.962 169.893 352.224 170.376C351.451 170.881 350.67 171.376 349.868 171.834C348.698 172.502 343.81 176.263 342.129 175.423C340.988 174.852 347.782 166.651 347.962 165.216C347.976 165.099 347.704 165.24 347.625 165.328C346.051 167.077 341.382 171.909 338.764 171.385C338.72 171.376 341.357 164.113 343.699 164.992C346.786 166.149 339.158 170.106 339.886 170.712C342.807 173.147 354.243 166.676 354.243 172.395C354.243 183.829 341.395 176.657 335.287 176.657C326.076 176.657 318.563 179.248 312.181 185.966C310.109 188.148 306.051 191.792 306.797 195.276C309.404 207.442 343.091 196.15 341.344 183.05C340.566 177.217 310.633 181.112 314.312 190.677C315.525 193.831 322.997 192.361 325.192 192.023C332.102 190.96 346.462 189.336 351.327 183.499C351.337 183.487 347.934 183.358 347.176 183.611" fill="none" opacity="1" stroke="#454159" stroke-linecap="round" stroke-linejoin="round" stroke-width="10" vectornator:layerName="Curve 3"/>
<path d="M257.657 148.237C257.657 147.072 242.153 150.664 240.213 151.899C230.203 158.268 217.388 172.308 216.523 184.418C215.646 196.702 218.538 221.366 228.799 229.213C254.205 248.641 313.318 240.163 332.387 215.645C351.332 191.287 341.92 157.804 311.928 147.807C292.134 141.209 267.523 140.387 247.32 145.438" fill="none" opacity="1" stroke="#454159" stroke-linecap="round" stroke-linejoin="round" stroke-width="10" vectornator:layerName="Curve 2"/>
<g opacity="1" vectornator:layerName="g 1">
<path d="M141.6 127.9C140.1 128.5 145.4 132 165.9 144C186.3 156.1 192 159.9 192 161.5C192 162.6 190.8 172.3 189.4 183C185 216.9 185 217.9 191.6 226.5C203.1 241.6 243.6 260.2 277.7 266C313.8 272.2 346.6 269.8 367.7 259.5C379.6 253.6 379.3 254.5 381.4 225.2C383.2 201.3 383.4 200.1 385.4 199.6C386.6 199.4 402.4 197 420.5 194.5C438.7 191.9 453.7 189.6 454 189.3C454.9 188.4 450.1 186.3 379.5 157L308.5 127.5L226 127.3C180.6 127.2 142.6 127.5 141.6 127.9ZM371.4 157.4C425.5 179.9 436.8 184.9 434.4 185.4C425.6 187.2 288.2 206 286.8 205.6C285.8 205.4 256.4 188.6 221.5 168.3L157.9 131.5L184.2 131C198.7 130.7 231.9 130.3 258 130.2L305.6 130L371.4 157.4ZM240.5 188.5C262.2 201.4 281.9 212.5 284.4 213.2C288.5 214.3 293.1 213.7 331.7 207.8C355.2 204.2 374.7 201.4 374.9 201.6C375.2 201.9 374.6 212 373.7 224.2C371.8 249.3 371.9 249.1 362.7 253C335.4 264.8 291.9 264.2 253.5 251.5C223.8 241.7 200.6 228.1 195.6 217.6C193.8 213.9 193.9 212.8 197.5 183.5C199.4 168.4 200 165 200.6 165C200.9 165 218.9 175.6 240.5 188.5Z" fill="#000000" fill-rule="nonzero" opacity="1" stroke="none" vectornator:layerName="path"/>
<path d="M288.1 152.9C285.4 155.6 285.5 156.5 288.4 159.5C292.7 163.8 303.1 165 306.1 161.4C309.5 157.3 303.9 151.9 295.7 151.2C291.1 150.8 289.9 151.1 288.1 152.9Z" fill="#000000" fill-rule="nonzero" opacity="1" stroke="none" vectornator:layerName="path"/>
</g>
</g>
<g id="Layer-2" vectornator:layerName="Layer 2">
<path d="M296.027 158.224L214.294 161.728L189.677 269.386" fill="none" opacity="1" stroke="#ff8f2a" stroke-linecap="butt" stroke-linejoin="round" stroke-width="10" vectornator:layerName="Line 1"/>
</g>
<g id="Layer-6" vectornator:layerName="Layer 6">
<path d="M291.436 157.605C291.436 156.723 290.791 155.458 293.654 155.458C296.518 155.458 301.824 156.736 301.859 158.174C301.894 159.613 297.725 159.517 296.027 159.248C294.329 158.98 291.436 158.487 291.436 157.605Z" fill="#000000" fill-rule="nonzero" opacity="1" stroke="#000000" stroke-linecap="butt" stroke-linejoin="round" stroke-width="10" vectornator:layerName="Oval 1"/>
</g>
<g id="Layer-3" vectornator:layerName="Layer 3">
<path d="M189.857 249.016C190.604 245.766 193.127 243.573 195.493 244.116C197.859 244.66 199.172 247.735 198.425 250.985C197.678 254.234 195.155 256.428 192.789 255.884C190.423 255.34 189.11 252.265 189.857 249.016Z" fill="#ff8f2a" fill-rule="nonzero" opacity="1" stroke="#ff8f2a" stroke-linecap="butt" stroke-linejoin="round" stroke-width="10" vectornator:layerName="Oval 1"/>
</g>
<g id="Layer-4" vectornator:layerName="Layer 4">
<path d="M195.983 250L179.659 280.837" fill="none" opacity="1" stroke="#ff8f2a" stroke-linecap="butt" stroke-linejoin="round" stroke-width="10" vectornator:layerName="Line 1"/>
</g>
<g id="Layer-4-copy" vectornator:layerName="Layer 4 copy">
<path d="M193.215 286.925L194.092 245.316" fill="none" opacity="1" stroke="#ff8f2a" stroke-linecap="butt" stroke-linejoin="round" stroke-width="10" vectornator:layerName="Line 1"/>
</g>
<g id="Layer-5" vectornator:layerName="Layer 5">
<path d="M179.659 280.837C180.04 279.176 186.678 268.706 189.648 269.386C192.618 270.066 193.595 285.263 193.215 286.925C192.834 288.587 187.016 287.453 184.209 285.821C181.401 284.188 179.278 282.499 179.659 280.837Z" fill="#ff8f2a" fill-rule="nonzero" opacity="1" stroke="#ff8f2a" stroke-linecap="butt" stroke-linejoin="round" stroke-width="10" vectornator:layerName="Oval 1"/>
</g>
<g id="Layer-1" vectornator:layerName="Layer 1">
<path d="M315.351 347.905C315.351 344.604 317.476 341.929 320.098 341.929C322.72 341.929 324.846 344.604 324.846 347.905C324.846 351.205 322.72 353.881 320.098 353.881C317.476 353.881 315.351 351.205 315.351 347.905Z" fill="#ffffff" fill-rule="nonzero" opacity="1" stroke="#ffffff" stroke-linecap="butt" stroke-linejoin="round" stroke-width="21.6574" vectornator:layerName="Oval 1"/>
</g>
<g id="Layer-1-copy" vectornator:layerName="Layer 1 copy">
<path d="M161.417 347.905C161.417 344.604 163.543 341.929 166.165 341.929C168.787 341.929 170.912 344.604 170.912 347.905C170.912 351.205 168.787 353.881 166.165 353.881C163.543 353.881 161.417 351.205 161.417 347.905Z" fill="#ffffff" fill-rule="nonzero" opacity="1" stroke="#ffffff" stroke-linecap="butt" stroke-linejoin="round" stroke-width="21.6574" vectornator:layerName="Oval 1"/>
</g>
</svg>
